<?xml version="1.0" encoding="UTF-8" standalone="no"?>
<svg width="35px" height="35px" viewBox="0 0 35 35" version="1.1" xmlns="http://www.w3.org/2000/svg" xmlns:xlink="http://www.w3.org/1999/xlink" xmlns:sketch="http://www.bohemiancoding.com/sketch/ns">
    <title>article</title>
    <description>Created with Sketch (http://www.bohemiancoding.com/sketch)</description>
    <defs></defs>
    <g id="Page-1" stroke="none" stroke-width="1" fill="none" fill-rule="evenodd" sketch:type="MSPage">
        <g id="Imported-Layers" sketch:type="MSLayerGroup" transform="translate(0.000000, -1.000000)">
            <path d="M17.5,0.492 C8.107,0.492 0.492,8.107 0.492,17.5 C0.492,26.893 8.107,34.508 17.5,34.508 C26.894,34.508 34.508,26.893 34.508,17.5 C34.508,8.107 26.894,0.492 17.5,0.492" id="Fill-1" fill="#A2C379" sketch:type="MSShapeGroup"></path>
            <path d="M7.737,29.152 L27.262,29.152 L27.262,5.847 L7.737,5.847 L7.737,29.152 Z M26.03,7.079 L26.03,27.919 L8.971,27.919 L8.971,7.079 L26.03,7.079 L26.03,7.079 Z" id="Fill-2" fill="#FFFFFF" sketch:type="MSShapeGroup"></path>
            <path d="M10.779,23.039 L24.451,23.039 L24.451,24.271 L10.779,24.271 L10.779,23.039 Z" id="Fill-3" fill="#FFFFFF" sketch:type="MSShapeGroup"></path>
            <path d="M10.779,8.715 L24.451,8.715 L24.451,10.568 L10.779,10.568 L10.779,8.715 Z" id="Fill-4" fill="#FFFFFF" sketch:type="MSShapeGroup"></path>
            <path d="M10.779,25.541 L24.451,25.541 L24.451,26.776 L10.779,26.776 L10.779,25.541 Z" id="Fill-5" fill="#FFFFFF" sketch:type="MSShapeGroup"></path>
            <path d="M10.723,21.885 L14.026,21.885 L14.026,11.796 L10.723,11.796 L10.723,21.885 Z M15.679,21.885 L18.979,21.885 L18.979,14.66 L15.679,14.66 L15.679,21.885 Z M20.357,21.885 L23.661,21.885 L23.661,17.651 L20.357,17.651 L20.357,21.885 Z" id="Fill-6" fill="#FFFFFF" sketch:type="MSShapeGroup"></path>
        </g>
    </g>
</svg>