<?xml version="1.0" encoding="UTF-8" standalone="no"?>
<svg width="35px" height="35px" viewBox="0 0 35 35" version="1.1" xmlns="http://www.w3.org/2000/svg" xmlns:xlink="http://www.w3.org/1999/xlink" xmlns:sketch="http://www.bohemiancoding.com/sketch/ns">
    <title>events</title>
    <description>Created with Sketch (http://www.bohemiancoding.com/sketch)</description>
    <defs></defs>
    <g id="Page-1" stroke="none" stroke-width="1" fill="none" fill-rule="evenodd" sketch:type="MSPage">
        <g id="Imported-Layers" sketch:type="MSLayerGroup" transform="translate(0.000000, -1.000000)">
            <path d="M17.5,0.492 C8.107,0.492 0.492,8.107 0.492,17.5 C0.492,26.893 8.107,34.508 17.5,34.508 C26.894,34.508 34.508,26.893 34.508,17.5 C34.508,8.107 26.894,0.492 17.5,0.492" id="Fill-1" fill="#A2C379" sketch:type="MSShapeGroup"></path>
            <path d="M7.737,27.263 L27.262,27.263 L27.262,7.738 L7.737,7.738 L7.737,27.263 Z M9.071,12.709 L25.927,12.709 L25.927,25.927 L9.071,25.927 L9.071,12.709 Z M15.35,23.481 L13.7,23.481 L13.7,17.268 C13.099,17.833 12.388,18.247 11.569,18.517 L11.569,17.023 C11.999,16.88 12.467,16.616 12.973,16.222 C13.477,15.83 13.822,15.369 14.011,14.846 L15.349,14.846 L15.349,23.481 L15.35,23.481 L15.35,23.481 Z M17.851,21.491 L19.446,21.318 C19.485,21.642 19.587,21.883 19.75,22.038 C19.915,22.195 20.131,22.274 20.403,22.274 C20.742,22.274 21.032,22.116 21.272,21.804 C21.512,21.491 21.664,20.843 21.73,19.854 C21.314,20.337 20.792,20.576 20.172,20.576 C19.495,20.576 18.912,20.316 18.422,19.793 C17.93,19.272 17.685,18.593 17.685,17.753 C17.685,16.882 17.943,16.18 18.465,15.646 C18.982,15.113 19.641,14.846 20.443,14.846 C21.318,14.846 22.033,15.182 22.591,15.857 C23.151,16.531 23.431,17.642 23.431,19.185 C23.431,20.759 23.14,21.896 22.559,22.59 C21.975,23.286 21.214,23.635 20.278,23.635 C19.607,23.635 19.064,23.456 18.647,23.098 C18.232,22.739 17.965,22.206 17.851,21.491 L17.851,21.491 Z M21.583,17.892 C21.583,17.358 21.459,16.945 21.217,16.654 C20.97,16.358 20.69,16.211 20.367,16.211 C20.062,16.211 19.809,16.333 19.607,16.572 C19.406,16.814 19.305,17.207 19.305,17.753 C19.305,18.311 19.414,18.718 19.636,18.979 C19.853,19.237 20.126,19.368 20.456,19.368 C20.772,19.368 21.037,19.242 21.255,18.995 C21.474,18.743 21.583,18.377 21.583,17.892 L21.583,17.892 Z" id="Fill-2" fill="#FFFFFF" sketch:type="MSShapeGroup"></path>
        </g>
    </g>
</svg>