<?xml version="1.0" encoding="UTF-8" standalone="no"?>
<svg width="35px" height="35px" viewBox="0 0 35 35" version="1.1" xmlns="http://www.w3.org/2000/svg" xmlns:xlink="http://www.w3.org/1999/xlink" xmlns:sketch="http://www.bohemiancoding.com/sketch/ns">
    <title>google</title>
    <description>Created with Sketch (http://www.bohemiancoding.com/sketch)</description>
    <defs></defs>
    <g id="Page-1" stroke="none" stroke-width="1" fill="none" fill-rule="evenodd" sketch:type="MSPage">
        <g id="Imported-Layers" sketch:type="MSLayerGroup" transform="translate(-48.000000, 0.000000)" fill="#A2C379">
            <path d="M65.224,12.495 C64.99,10.712 63.699,9.283 62.343,9.242 C60.986,9.202 60.076,10.566 60.31,12.348 C60.544,14.13 61.835,15.607 63.191,15.648 C64.548,15.689 65.458,14.277 65.224,12.495" id="Fill-3" sketch:type="MSShapeGroup"></path>
            <path d="M64.321,19.318 C63.923,19.19 63.482,19.113 63.011,19.107 C60.989,19.086 59.178,20.34 59.178,21.848 C59.178,23.385 60.638,24.664 62.66,24.664 C65.503,24.664 66.492,23.463 66.492,21.926 C66.492,21.74 66.47,21.559 66.428,21.383 C66.205,20.512 65.418,20.082 64.321,19.318" id="Fill-4" sketch:type="MSShapeGroup"></path>
            <path d="M65.474,0.038 C56.081,0.038 48.465,7.653 48.465,17.046 C48.465,26.44 56.081,34.055 65.474,34.055 C74.867,34.055 82.481,26.44 82.481,17.046 C82.481,7.653 74.867,0.038 65.474,0.038 L65.474,0.038 Z M62.67,25.506 C59.746,25.506 57.277,24.315 57.277,22.413 C57.277,20.48 59.529,18.619 62.454,18.619 C62.772,18.619 63.065,18.609 63.367,18.609 C62.967,18.221 62.649,17.742 62.649,17.153 C62.649,16.805 62.762,16.468 62.918,16.17 C62.759,16.182 62.597,16.185 62.43,16.185 C60.027,16.185 58.417,14.476 58.417,12.358 C58.417,10.286 60.64,8.497 63.001,8.497 L68.268,8.497 L67.09,9.349 L65.42,9.349 C66.527,9.775 67.117,11.066 67.117,12.392 C67.117,13.504 66.5,14.461 65.63,15.142 C64.78,15.806 64.619,16.084 64.619,16.649 C64.619,17.131 65.528,17.951 66.004,18.287 C67.397,19.272 67.847,20.186 67.847,21.711 C67.847,23.613 66.004,25.506 62.67,25.506 L62.67,25.506 Z M73.668,17.454 L71.617,17.454 L71.617,19.505 L69.967,19.505 L69.967,17.454 L67.917,17.454 L67.917,15.803 L69.967,15.803 L69.967,13.753 L71.617,13.753 L71.617,15.803 L73.668,15.803 L73.668,17.454 L73.668,17.454 Z" id="Fill-5" sketch:type="MSShapeGroup"></path>
        </g>
    </g>
</svg>