<?xml version="1.0" encoding="UTF-8" standalone="no"?>
<svg width="35px" height="35px" viewBox="0 0 35 35" version="1.1" xmlns="http://www.w3.org/2000/svg" xmlns:xlink="http://www.w3.org/1999/xlink" xmlns:sketch="http://www.bohemiancoding.com/sketch/ns">
    <title>linkedin</title>
    <description>Created with Sketch (http://www.bohemiancoding.com/sketch)</description>
    <defs></defs>
    <g id="Page-1" stroke="none" stroke-width="1" fill="none" fill-rule="evenodd" sketch:type="MSPage">
        <g id="Imported-Layers" sketch:type="MSLayerGroup" fill="#A2C379">
            <path d="M17.473,0.039 C8.08,0.039 0.465,7.653 0.465,17.045 C0.465,26.439 8.08,34.054 17.473,34.054 C26.868,34.054 34.481,26.439 34.481,17.045 C34.481,7.653 26.868,0.039 17.473,0.039 L17.473,0.039 Z M9.398,13.55 L12.714,13.55 L12.714,24.159 L9.398,24.159 L9.398,13.55 Z M10.971,12.223 L10.947,12.223 C9.747,12.223 8.969,11.412 8.969,10.385 C8.969,9.337 9.771,8.543 10.994,8.543 C12.217,8.543 12.969,9.335 12.993,10.382 C12.993,11.41 12.217,12.223 10.971,12.223 L10.971,12.223 Z M25.977,24.159 L22.217,24.159 L22.217,18.669 C22.217,17.232 21.63,16.252 20.336,16.252 C19.348,16.252 18.798,16.914 18.542,17.551 C18.446,17.779 18.461,18.099 18.461,18.418 L18.461,24.159 L14.737,24.159 C14.737,24.159 14.785,14.435 14.737,13.55 L18.461,13.55 L18.461,15.215 C18.681,14.487 19.871,13.448 21.77,13.448 C24.126,13.448 25.977,14.975 25.977,18.26 L25.977,24.159 L25.977,24.159 Z" id="Fill-1" sketch:type="MSShapeGroup"></path>
        </g>
    </g>
</svg>