<?xml version="1.0" encoding="UTF-8" standalone="no"?>
<svg width="35px" height="35px" viewBox="0 0 35 35" version="1.1" xmlns="http://www.w3.org/2000/svg" xmlns:xlink="http://www.w3.org/1999/xlink" xmlns:sketch="http://www.bohemiancoding.com/sketch/ns">
    <title>news</title>
    <description>Created with Sketch (http://www.bohemiancoding.com/sketch)</description>
    <defs></defs>
    <g id="Page-1" stroke="none" stroke-width="1" fill="none" fill-rule="evenodd" sketch:type="MSPage">
        <g id="Imported-Layers" sketch:type="MSLayerGroup">
            <path d="M17.5,0.492 C8.107,0.492 0.492,8.107 0.492,17.5 C0.492,26.893 8.107,34.508 17.5,34.508 C26.894,34.508 34.508,26.893 34.508,17.5 C34.508,8.107 26.894,0.492 17.5,0.492" id="Fill-1" fill="#A2C379" sketch:type="MSShapeGroup"></path>
            <path d="M27.858,17.811 C28.411,15.352 28.874,13.62 28.878,13.603 C28.923,13.436 28.884,13.258 28.771,13.124 C28.661,12.994 28.493,12.928 28.317,12.942 C28.034,12.971 21.44,13.703 17.549,18.096 C13.632,13.856 6.982,12.979 6.692,12.943 C6.519,12.92 6.346,12.989 6.231,13.121 C6.117,13.253 6.075,13.433 6.121,13.602 C6.125,13.62 6.588,15.351 7.142,17.809 C6.327,18.184 5.751,18.998 5.751,19.953 C5.751,21.236 6.783,22.275 8.058,22.309 C8.34,23.852 8.573,25.303 8.736,26.596 C8.763,26.793 8.896,26.959 9.085,27.025 C9.14,27.045 14.509,28.943 16.929,31.699 C17.034,31.816 17.179,31.877 17.325,31.877 C17.375,31.877 17.418,31.838 17.466,31.824 C17.476,31.828 17.48,31.84 17.49,31.844 C17.551,31.867 17.613,31.877 17.677,31.877 C17.825,31.877 17.97,31.816 18.073,31.699 C20.491,28.943 25.86,27.045 25.917,27.025 C26.104,26.959 26.237,26.793 26.265,26.596 C26.431,25.273 26.665,23.826 26.942,22.309 C28.216,22.277 29.249,21.24 29.249,19.955 C29.249,19 28.673,18.185 27.858,17.811 L27.858,17.811 Z M8.118,21.269 C7.393,21.269 6.803,20.68 6.803,19.955 C6.803,19.228 7.393,18.641 8.118,18.641 C8.844,18.641 9.433,19.231 9.433,19.955 C9.433,20.68 8.843,21.269 8.118,21.269 L8.118,21.269 Z M17.155,30.451 C14.769,28.154 10.871,26.57 9.74,26.146 C9.576,24.912 9.353,23.547 9.09,22.102 C9.909,21.729 10.485,20.912 10.485,19.955 C10.485,18.67 9.451,17.629 8.173,17.6 C7.836,16.106 7.532,14.868 7.342,14.122 C9.251,14.492 14.221,15.746 17.097,19.158 C17.132,19.199 17.187,19.191 17.231,19.219 L17.155,30.451 L17.155,30.451 Z M25.261,26.146 C24.186,26.549 20.612,27.984 18.21,30.086 L18.287,18.836 C21.159,15.555 25.837,14.432 27.661,14.106 C27.472,14.852 27.165,16.096 26.829,17.6 C25.548,17.629 24.513,18.668 24.513,19.955 C24.513,20.912 25.091,21.729 25.909,22.102 C25.647,23.523 25.427,24.889 25.261,26.146 L25.261,26.146 Z M26.882,21.269 C26.155,21.269 25.565,20.68 25.565,19.955 C25.565,19.228 26.157,18.641 26.882,18.641 C27.606,18.641 28.196,19.231 28.196,19.955 C28.196,20.68 27.606,21.269 26.882,21.269 L26.882,21.269 Z" id="Fill-2" fill="#FFFFFF" sketch:type="MSShapeGroup"></path>
            <path d="M22.875,9.077 C22.875,12.045 20.469,14.452 17.5,14.452 C14.531,14.452 12.125,12.045 12.125,9.077 C12.125,6.108 14.531,3.702 17.5,3.702 C20.469,3.702 22.875,6.108 22.875,9.077 L22.875,9.077 Z" id="Stroke-3" stroke="#FFFFFF" sketch:type="MSShapeGroup"></path>
        </g>
    </g>
</svg>