<?xml version="1.0" encoding="UTF-8" standalone="no"?>
<svg width="35px" height="35px" viewBox="0 0 35 35" version="1.1" xmlns="http://www.w3.org/2000/svg" xmlns:xlink="http://www.w3.org/1999/xlink" xmlns:sketch="http://www.bohemiancoding.com/sketch/ns">
    <title>press</title>
    <description>Created with Sketch (http://www.bohemiancoding.com/sketch)</description>
    <defs></defs>
    <g id="Page-1" stroke="none" stroke-width="1" fill="none" fill-rule="evenodd" sketch:type="MSPage">
        <g id="Imported-Layers" sketch:type="MSLayerGroup">
            <path d="M17.5,0.492 C8.107,0.492 0.492,8.107 0.492,17.5 C0.492,26.893 8.107,34.508 17.5,34.508 C26.894,34.508 34.508,26.893 34.508,17.5 C34.508,8.107 26.894,0.492 17.5,0.492" id="Fill-1" fill="#A2C379" sketch:type="MSShapeGroup"></path>
            <path d="M25.219,8 L12.156,8 C11.172,8 10.375,8.797 10.375,9.781 L10.375,10.969 L9.781,10.969 C8.797,10.969 8,11.766 8,12.75 L8,24.625 C8,25.937 9.063,27 10.375,27 L24.625,27 C25.936,27 27,25.937 27,24.625 L27,9.781 C27,8.797 26.202,8 25.219,8 L25.219,8 Z M25.812,24.625 C25.812,25.279 25.279,25.812 24.625,25.812 L10.375,25.812 C9.72,25.812 9.188,25.279 9.188,24.625 L9.188,12.75 C9.188,12.422 9.453,12.156 9.781,12.156 L10.375,12.156 L10.375,24.031 C10.375,24.359 10.64,24.625 10.969,24.625 C11.297,24.625 11.562,24.359 11.562,24.031 L11.562,9.781 C11.562,9.453 11.828,9.188 12.156,9.188 L25.219,9.188 C25.546,9.188 25.812,9.453 25.812,9.781 L25.812,24.625 L25.812,24.625 Z" id="Fill-2" fill="#FFFFFF" sketch:type="MSShapeGroup"></path>
            <path d="M19.577,15.722 L24.327,15.722 C24.491,15.722 24.624,15.588 24.624,15.425 C24.624,15.261 24.491,15.128 24.327,15.128 L19.577,15.128 C19.414,15.128 19.28,15.261 19.28,15.425 C19.28,15.588 19.414,15.722 19.577,15.722" id="Fill-3" fill="#FFFFFF" sketch:type="MSShapeGroup"></path>
            <path d="M19.577,13.94 L24.327,13.94 C24.491,13.94 24.624,13.807 24.624,13.644 C24.624,13.48 24.491,13.347 24.327,13.347 L19.577,13.347 C19.414,13.347 19.28,13.48 19.28,13.644 C19.28,13.807 19.414,13.94 19.577,13.94" id="Fill-4" fill="#FFFFFF" sketch:type="MSShapeGroup"></path>
            <path d="M19.577,12.159 L24.327,12.159 C24.491,12.159 24.624,12.026 24.624,11.862 C24.624,11.698 24.491,11.565 24.327,11.565 L19.577,11.565 C19.414,11.565 19.28,11.698 19.28,11.862 C19.28,12.026 19.414,12.159 19.577,12.159" id="Fill-5" fill="#FFFFFF" sketch:type="MSShapeGroup"></path>
            <path d="M17.797,24.033 L13.047,24.033 C12.883,24.033 12.75,24.167 12.75,24.33 C12.75,24.495 12.883,24.627 13.047,24.627 L17.797,24.627 C17.96,24.627 18.094,24.495 18.094,24.33 C18.094,24.167 17.96,24.033 17.797,24.033" id="Fill-6" fill="#FFFFFF" sketch:type="MSShapeGroup"></path>
            <path d="M17.797,22.252 L13.047,22.252 C12.883,22.252 12.75,22.386 12.75,22.549 C12.75,22.714 12.883,22.846 13.047,22.846 L17.797,22.846 C17.96,22.846 18.094,22.714 18.094,22.549 C18.094,22.386 17.96,22.252 17.797,22.252" id="Fill-7" fill="#FFFFFF" sketch:type="MSShapeGroup"></path>
            <path d="M17.797,20.471 L13.047,20.471 C12.883,20.471 12.75,20.605 12.75,20.768 C12.75,20.933 12.883,21.065 13.047,21.065 L17.797,21.065 C17.96,21.065 18.094,20.933 18.094,20.768 C18.094,20.605 17.96,20.471 17.797,20.471" id="Fill-8" fill="#FFFFFF" sketch:type="MSShapeGroup"></path>
            <path d="M24.328,24.033 L19.578,24.033 C19.414,24.033 19.281,24.167 19.281,24.33 C19.281,24.495 19.414,24.627 19.578,24.627 L24.328,24.627 C24.491,24.627 24.625,24.495 24.625,24.33 C24.625,24.167 24.491,24.033 24.328,24.033" id="Fill-9" fill="#FFFFFF" sketch:type="MSShapeGroup"></path>
            <path d="M24.328,22.252 L19.578,22.252 C19.414,22.252 19.281,22.386 19.281,22.549 C19.281,22.714 19.414,22.846 19.578,22.846 L24.328,22.846 C24.491,22.846 24.625,22.714 24.625,22.549 C24.625,22.386 24.491,22.252 24.328,22.252" id="Fill-10" fill="#FFFFFF" sketch:type="MSShapeGroup"></path>
            <path d="M24.328,20.471 L19.578,20.471 C19.414,20.471 19.281,20.605 19.281,20.768 C19.281,20.933 19.414,21.065 19.578,21.065 L24.328,21.065 C24.491,21.065 24.625,20.933 24.625,20.768 C24.625,20.605 24.491,20.471 24.328,20.471" id="Fill-11" fill="#FFFFFF" sketch:type="MSShapeGroup"></path>
            <path d="M24.328,16.909 L13.047,16.909 C12.883,16.909 12.75,17.041 12.75,17.206 C12.75,17.369 12.883,17.502 13.047,17.502 L24.328,17.502 C24.491,17.502 24.625,17.369 24.625,17.206 C24.625,17.041 24.491,16.909 24.328,16.909" id="Fill-12" fill="#FFFFFF" sketch:type="MSShapeGroup"></path>
            <path d="M24.328,18.689 L13.047,18.689 C12.883,18.689 12.75,18.823 12.75,18.986 C12.75,19.151 12.883,19.283 13.047,19.283 L24.328,19.283 C24.491,19.283 24.625,19.151 24.625,18.986 C24.625,18.823 24.491,18.689 24.328,18.689" id="Fill-13" fill="#FFFFFF" sketch:type="MSShapeGroup"></path>
            <path d="M13.344,15.719 L17.5,15.719 C17.828,15.719 18.094,15.454 18.094,15.125 L18.094,10.971 C18.094,10.643 17.828,10.377 17.5,10.377 L13.344,10.377 C13.015,10.377 12.75,10.643 12.75,10.971 L12.75,15.125 C12.75,15.453 13.015,15.719 13.344,15.719 L13.344,15.719 Z M13.937,11.563 L16.906,11.563 L16.906,14.532 L13.937,14.532 L13.937,11.563 Z" id="Fill-14" fill="#FFFFFF" sketch:type="MSShapeGroup"></path>
        </g>
    </g>
</svg>