<?xml version="1.0" encoding="UTF-8" standalone="no"?>
<svg width="35px" height="35px" viewBox="0 0 35 35" version="1.1" xmlns="http://www.w3.org/2000/svg" xmlns:xlink="http://www.w3.org/1999/xlink" xmlns:sketch="http://www.bohemiancoding.com/sketch/ns">
    <title>twitter</title>
    <description>Created with Sketch (http://www.bohemiancoding.com/sketch)</description>
    <defs></defs>
    <g id="Page-1" stroke="none" stroke-width="1" fill="none" fill-rule="evenodd" sketch:type="MSPage">
        <g id="Imported-Layers" sketch:type="MSLayerGroup" transform="translate(-96.000000, 0.000000)" fill="#A2C379">
            <path d="M113.474,0.039 C104.081,0.039 96.466,7.654 96.466,17.046 C96.466,26.44 104.081,34.054 113.474,34.054 C122.867,34.054 130.481,26.44 130.481,17.046 C130.481,7.654 122.867,0.039 113.474,0.039 L113.474,0.039 Z M120.263,14.4 C120.27,14.549 120.272,14.701 120.272,14.853 C120.272,19.472 116.758,24.798 110.327,24.798 C108.354,24.798 106.517,24.218 104.97,23.228 C105.243,23.261 105.522,23.276 105.804,23.276 C107.44,23.276 108.948,22.718 110.145,21.78 C108.614,21.753 107.324,20.741 106.88,19.353 C107.093,19.394 107.312,19.415 107.537,19.415 C107.856,19.415 108.165,19.374 108.458,19.292 C106.858,18.972 105.653,17.56 105.653,15.864 L105.653,15.821 C106.126,16.082 106.665,16.241 107.237,16.259 C106.3,15.631 105.683,14.561 105.683,13.349 C105.683,12.709 105.855,12.108 106.155,11.59 C107.881,13.707 110.456,15.097 113.36,15.243 C113.3,14.987 113.271,14.721 113.271,14.447 C113.271,12.517 114.835,10.952 116.765,10.952 C117.771,10.952 118.68,11.376 119.315,12.055 C120.113,11.899 120.86,11.608 121.536,11.208 C121.276,12.024 120.722,12.709 119.999,13.141 C120.706,13.057 121.38,12.869 122.007,12.591 C121.54,13.292 120.946,13.907 120.263,14.4 L120.263,14.4 Z" id="Fill-2" sketch:type="MSShapeGroup"></path>
        </g>
    </g>
</svg>