<?xml version="1.0" encoding="UTF-8" standalone="no"?>
<svg width="275px" height="76px" viewBox="0 0 275 76" version="1.1" xmlns="http://www.w3.org/2000/svg" xmlns:xlink="http://www.w3.org/1999/xlink" xmlns:sketch="http://www.bohemiancoding.com/sketch/ns">
    <title>logo</title>
    <description>Created with Sketch (http://www.bohemiancoding.com/sketch)</description>
    <defs>
        <radialGradient cx="51.0198049%" cy="99.225749%" fx="51.0198049%" fy="99.225749%" r="100.205433%" id="radialGradient-1">
            <stop stop-color="#80BA27" offset="47.03%"></stop>
            <stop stop-color="#8FC036" offset="54.58%"></stop>
            <stop stop-color="#B1CE5D" offset="69.54%"></stop>
            <stop stop-color="#DFE79F" offset="90.34%"></stop>
            <stop stop-color="#E2E9A4" offset="91.89%"></stop>
            <stop stop-color="#E2E9A4" offset="98.38%"></stop>
        </radialGradient>
    </defs>
    <g id="Page-1" stroke="none" stroke-width="1" fill="none" fill-rule="evenodd" sketch:type="MSPage">
        <g id="Logo" sketch:type="MSLayerGroup" transform="translate(-119.000000, -162.000000)">
            <g id="Group" sketch:type="MSShapeGroup">
                <path d="M119.626,208.501 L119.626,176.832 C119.626,176.537 119.872,176.292 120.166,176.292 L123.849,176.292 C124.144,176.292 124.389,176.537 124.389,176.832 L124.389,208.501 C124.389,208.796 124.143,209.041 123.849,209.041 L120.166,209.041 C119.872,209.041 119.626,208.796 119.626,208.501 L119.626,208.501 Z" id="Shape" stroke="#6C6968" stroke-width="0.1" fill="#6C6968"></path>
                <path d="M137.305,203.69 C137.501,203.69 137.648,203.739 138.09,204.034 C139.711,205.163 142.46,205.949 144.719,205.949 C148.303,205.949 150.562,203.985 150.562,200.941 C150.562,200.106 150.415,199.32 150.12,198.632 C149.678,197.699 149.138,197.159 147.469,195.981 L141.675,191.956 C140.644,191.268 139.809,190.581 139.22,189.894 C137.993,188.568 137.256,186.555 137.256,184.444 C137.256,179.141 141.037,175.9 147.273,175.9 C149.679,175.9 152.379,176.391 154.245,177.226 C154.785,177.471 154.834,177.521 154.834,178.159 L154.834,180.958 C154.834,181.498 154.736,181.694 154.392,181.694 C154.147,181.694 154.048,181.645 153.607,181.301 C151.839,180.073 149.777,179.386 147.518,179.386 C144.13,179.386 142.019,181.154 142.019,183.952 C142.019,185.671 142.707,186.8 144.72,188.175 L150.759,192.25 C154.392,194.705 155.817,196.964 155.817,200.254 C155.817,205.851 151.594,209.436 144.965,209.436 C142.51,209.436 139.564,208.994 137.748,208.257 C136.962,207.962 136.766,207.766 136.766,207.226 L136.766,204.28 C136.764,203.936 136.961,203.69 137.305,203.69 L137.305,203.69 Z" id="Shape" stroke="#6C6968" stroke-width="0.1" fill="#6C6968"></path>
                <path d="M183.191,205.506 C183.486,205.506 183.78,205.801 183.78,206.096 L183.78,208.501 C183.78,208.796 183.486,209.041 183.191,209.041 L167.185,209.041 C166.89,209.041 166.644,208.796 166.644,208.501 L166.644,176.832 C166.644,176.537 166.89,176.292 167.185,176.292 L170.867,176.292 C171.162,176.292 171.407,176.537 171.407,176.832 L171.407,205.506 L183.191,205.506 L183.191,205.506 Z" id="Shape" stroke="#6C6968" stroke-width="0.1" fill="#6C6968"></path>
                <path d="M195.165,208.648 C195.116,208.894 194.87,209.041 194.674,209.041 L191.777,209.041 C191.286,209.041 191.089,208.895 191.089,208.551 L191.089,208.404 L191.286,207.913 L201.793,178.109 L202.137,177.176 C202.481,176.145 202.825,175.899 204.101,175.899 L206.163,175.899 C207.047,175.899 207.39,175.949 207.685,176.194 C207.979,176.341 208.323,177.029 208.667,178.06 L218.831,207.864 L218.978,208.305 C219.027,208.355 219.027,208.452 219.027,208.551 C219.027,208.895 218.733,209.041 218.193,209.041 L214.854,209.041 C214.608,209.041 214.412,208.895 214.314,208.648 L210.582,197.11 L198.945,197.11 L195.165,208.648 L195.165,208.648 Z M209.551,194.017 L204.788,179.287 L200.025,194.017 L209.551,194.017 L209.551,194.017 Z" id="Shape" stroke="#6C6968" stroke-width="0.1" fill="#6C6968"></path>
                <path d="M232.803,208.501 C232.803,208.796 232.558,209.041 232.263,209.041 L229.71,209.041 C229.415,209.041 229.17,208.796 229.17,208.501 L229.17,176.832 C229.17,176.537 229.416,176.292 229.71,176.292 L234.08,176.292 C234.62,176.292 234.866,176.488 235.16,176.98 L250.577,202.561 L250.577,176.832 C250.577,176.537 250.823,176.292 251.117,176.292 L253.621,176.292 C253.915,176.292 254.161,176.537 254.161,176.832 L254.161,208.501 C254.161,208.796 253.915,209.041 253.621,209.041 L250.871,209.041 C250.233,209.041 249.742,208.895 249.398,208.6 C249.103,208.305 248.858,207.912 248.17,206.784 L232.801,181.546 L232.801,208.501 L232.803,208.501 Z" id="Shape" stroke="#6C6968" stroke-width="0.1" fill="#6C6968"></path>
                <path d="M266.71,208.501 L266.71,176.832 C266.71,176.537 266.956,176.292 267.25,176.292 L279.623,176.292 C288.412,176.292 294.452,182.773 294.452,192.249 C294.452,202.413 288.069,209.041 278.347,209.041 L267.25,209.041 C266.956,209.041 266.71,208.796 266.71,208.501 L266.71,208.501 Z M276.923,205.506 C281.096,205.506 283.797,204.426 286.105,201.824 C288.314,199.369 289.444,196.128 289.444,192.347 C289.444,184.638 284.878,179.826 277.562,179.826 L271.474,179.826 L271.474,205.505 L276.923,205.505 L276.923,205.506 Z" id="Shape" stroke="#6C6968" stroke-width="0.1" fill="#6C6968"></path>
                <path d="M326.077,191.055 L329.76,191.055 C330.054,191.055 330.3,191.3 330.3,191.595 L330.3,206.489 C330.3,207.029 330.202,207.274 330.005,207.422 C328.63,208.502 324.113,209.436 320.48,209.436 C309.973,209.436 303.541,203.347 303.541,193.282 C303.541,182.48 310.219,175.9 321.168,175.9 C323.378,175.9 324.998,176.097 327.012,176.686 C328.043,176.981 328.926,177.275 329.614,177.57 C330.155,177.865 330.302,178.11 330.302,178.749 L330.302,180.86 C330.302,181.449 330.155,181.694 329.861,181.694 L329.812,181.694 C329.615,181.645 329.124,181.449 328.829,181.301 L328.632,181.153 C326.914,180.172 323.723,179.385 321.169,179.385 C313.362,179.385 308.55,184.786 308.55,193.477 C308.55,201.284 313.166,205.949 320.825,205.949 C322.348,205.949 323.771,205.802 324.704,205.507 C325.294,205.311 325.539,205.017 325.539,204.378 L325.539,191.596 C325.537,191.3 325.782,191.055 326.077,191.055 L326.077,191.055 Z" id="Shape" stroke="#A0904E" stroke-width="0.1" fill="#A0904E"></path>
                <path d="M343.12,208.501 L343.12,176.832 C343.12,176.537 343.366,176.292 343.661,176.292 L347.343,176.292 C347.638,176.292 347.884,176.537 347.884,176.832 L347.884,208.501 C347.884,208.796 347.638,209.041 347.343,209.041 L343.661,209.041 C343.366,209.041 343.12,208.796 343.12,208.501 L343.12,208.501 Z" id="Shape" stroke="#A0904E" stroke-width="0.1" fill="#A0904E"></path>
                <path d="M360.8,203.69 C360.995,203.69 361.144,203.739 361.585,204.034 C363.205,205.163 365.954,205.949 368.214,205.949 C371.798,205.949 374.056,203.985 374.056,200.941 C374.056,200.106 373.909,199.32 373.615,198.632 C373.174,197.699 372.633,197.159 370.964,195.981 L365.17,191.956 C364.139,191.268 363.305,190.581 362.715,189.894 C361.488,188.568 360.751,186.555 360.751,184.444 C360.751,179.141 364.531,175.9 370.768,175.9 C373.174,175.9 375.874,176.391 377.741,177.226 C378.28,177.471 378.33,177.521 378.33,178.159 L378.33,180.958 C378.33,181.498 378.231,181.694 377.888,181.694 C377.643,181.694 377.544,181.645 377.103,181.301 C375.335,180.073 373.273,179.386 371.015,179.386 C367.626,179.386 365.515,181.154 365.515,183.952 C365.515,185.671 366.203,186.8 368.216,188.175 L374.255,192.25 C377.888,194.705 379.312,196.964 379.312,200.254 C379.312,205.851 375.089,209.436 368.461,209.436 C366.006,209.436 363.06,208.994 361.243,208.257 C360.458,207.962 360.261,207.766 360.261,207.226 L360.261,204.28 C360.259,203.936 360.456,203.69 360.8,203.69 L360.8,203.69 Z" id="Shape" stroke="#A0904E" stroke-width="0.1" fill="#A0904E"></path>
                <path d="M384.477,175.556 C384.426,175.556 384.387,175.518 384.387,175.467 L384.387,175.111 C384.387,175.061 384.426,175.01 384.477,175.01 L387.92,175.01 C387.971,175.01 388.01,175.061 388.01,175.111 L388.01,175.467 C388.01,175.518 387.971,175.556 387.92,175.556 L386.561,175.556 L386.561,179.75 C386.561,179.801 386.524,179.839 386.473,179.839 L385.926,179.839 C385.875,179.839 385.836,179.801 385.836,179.75 L385.836,175.556 L384.477,175.556 L384.477,175.556 Z M389.167,179.75 C389.167,179.801 389.13,179.839 389.077,179.839 L388.685,179.839 C388.634,179.839 388.595,179.801 388.595,179.75 L388.595,175.11 C388.595,175.06 388.634,175.009 388.685,175.009 L389.383,175.009 C389.485,175.009 389.536,175.046 389.562,175.149 L390.985,179.19 L392.345,175.225 C392.409,175.046 392.447,175.009 392.573,175.009 L393.272,175.009 C393.323,175.009 393.374,175.06 393.374,175.11 L393.374,179.75 C393.374,179.801 393.323,179.839 393.272,179.839 L392.764,179.839 C392.712,179.839 392.661,179.801 392.661,179.75 L392.661,175.937 L391.467,179.407 C391.416,179.547 391.378,179.623 391.34,179.713 C391.276,179.827 391.238,179.84 391.098,179.84 L390.692,179.84 C390.54,179.84 390.501,179.802 390.413,179.535 L389.484,176.84 L389.395,176.599 L389.306,176.332 C389.256,176.192 389.231,176.128 389.166,175.964 L389.166,179.75 L389.167,179.75 Z" id="Shape" fill="#6C6968"></path>
                <g transform="translate(154.000000, 222.000000)" id="Shape" fill="#6C6968">
                    <path d="M-0.157,6.416 C-0.157,2.898 2.748,0.098 6.301,0.098 C7.789,0.098 9.206,0.606 10.291,1.463 C10.746,1.795 10.816,2.443 10.484,2.881 C10.152,3.301 9.504,3.388 9.066,3.038 C8.314,2.46 7.351,2.093 6.301,2.093 C5.041,2.093 3.938,2.566 3.151,3.37 C2.328,4.158 1.839,5.225 1.839,6.416 C1.839,7.571 2.329,8.639 3.151,9.426 C3.939,10.232 5.041,10.704 6.301,10.704 C7.176,10.704 7.999,10.441 8.699,10.039 L8.699,7.641 L6.196,7.641 C5.654,7.641 5.198,7.186 5.198,6.644 C5.198,6.083 5.653,5.664 6.196,5.664 L9.644,5.664 L9.662,5.664 L9.68,5.664 C10.24,5.664 10.695,6.084 10.695,6.644 L10.695,10.512 C10.695,10.634 10.66,10.704 10.642,10.809 C10.624,10.844 10.624,10.862 10.607,10.897 L10.607,10.915 C10.555,11.072 10.45,11.212 10.274,11.335 C9.172,12.192 7.789,12.7 6.301,12.7 C2.748,12.699 -0.157,9.916 -0.157,6.416 L-0.157,6.416 Z"></path>
                    <path d="M14.429,8.323 C14.447,5.943 16.302,3.948 18.699,3.948 C20.974,3.948 22.777,5.645 22.917,8.009 L22.917,8.096 C22.917,8.131 22.917,8.219 22.899,8.254 C22.847,8.674 22.479,8.953 21.989,8.953 L16.424,8.953 C16.511,9.356 16.704,9.811 17.019,10.108 C17.387,10.528 18.086,10.843 18.699,10.896 C19.329,10.949 20.081,10.79 20.519,10.458 C20.886,10.072 21.604,10.125 21.831,10.405 C22.059,10.65 22.233,11.176 21.831,11.543 C20.974,12.33 19.941,12.698 18.698,12.698 C16.301,12.682 14.446,10.704 14.429,8.323 L14.429,8.323 Z M16.336,7.466 L21.289,7.466 C21.114,6.766 20.221,5.734 18.699,5.611 C17.211,5.681 16.477,6.748 16.336,7.466 L16.336,7.466 Z"></path>
                    <path d="M29.537,4.911 C29.537,5.435 29.082,5.873 28.557,5.873 L28.119,5.873 L28.119,10.756 C28.661,10.756 29.081,11.194 29.081,11.736 C29.081,12.279 28.661,12.699 28.119,12.699 C27.051,12.699 26.176,11.824 26.176,10.756 L26.176,5.873 L25.669,5.873 C25.127,5.873 24.706,5.436 24.706,4.911 C24.706,4.368 25.127,3.948 25.669,3.948 L26.176,3.948 L26.176,1.41 C26.176,0.868 26.614,0.447 27.156,0.447 C27.698,0.447 28.118,0.868 28.118,1.41 L28.118,3.948 L28.556,3.948 C29.082,3.948 29.537,4.368 29.537,4.911 L29.537,4.911 Z"></path>
                    <path d="M36.033,4.911 C36.033,5.435 35.578,5.873 35.053,5.873 L34.615,5.873 L34.615,10.756 C35.157,10.756 35.577,11.194 35.577,11.736 C35.577,12.279 35.157,12.699 34.615,12.699 C33.547,12.699 32.672,11.824 32.672,10.756 L32.672,5.873 L32.165,5.873 C31.623,5.873 31.202,5.436 31.202,4.911 C31.202,4.368 31.622,3.948 32.165,3.948 L32.672,3.948 L32.672,1.41 C32.672,0.868 33.11,0.447 33.652,0.447 C34.195,0.447 34.614,0.868 34.614,1.41 L34.614,3.948 L35.052,3.948 C35.578,3.948 36.033,4.368 36.033,4.911 L36.033,4.911 Z"></path>
                    <path d="M41.602,1.761 C41.602,2.286 41.2,2.723 40.657,2.723 C40.132,2.723 39.712,2.285 39.712,1.761 L39.712,1.393 C39.712,0.869 40.132,0.448 40.657,0.448 C41.199,0.448 41.602,0.869 41.602,1.393 L41.602,1.761 L41.602,1.761 Z M41.602,4.928 L41.602,11.754 C41.602,12.279 41.2,12.699 40.657,12.699 C40.132,12.699 39.712,12.279 39.712,11.754 L39.712,4.928 C39.712,4.368 40.132,3.966 40.657,3.966 C41.199,3.966 41.602,4.368 41.602,4.928 L41.602,4.928 Z"></path>
                    <path d="M52.508,7.589 L52.508,11.772 C52.508,12.28 52.106,12.7 51.598,12.7 C51.108,12.7 50.671,12.28 50.671,11.772 L50.671,7.589 C50.671,6.609 49.848,5.82 48.851,5.82 C47.871,5.82 47.101,6.608 47.101,7.589 L47.101,11.772 C47.101,11.825 47.101,11.876 47.066,11.947 C46.979,12.367 46.593,12.7 46.138,12.7 C45.613,12.7 45.21,12.28 45.21,11.772 L45.21,7.589 L45.21,4.876 C45.21,4.368 45.613,3.948 46.138,3.948 C46.506,3.948 46.838,4.158 46.996,4.49 C47.521,4.158 48.168,3.948 48.851,3.948 C50.88,3.948 52.508,5.61 52.508,7.589 L52.508,7.589 Z"></path>
                    <path d="M64.361,8.376 L64.361,11.632 C64.361,13.924 62.488,15.832 60.16,15.832 C59.513,15.832 58.865,15.674 58.323,15.395 C57.868,15.185 57.658,14.607 57.903,14.134 C58.131,13.661 58.673,13.486 59.163,13.696 C59.46,13.854 59.793,13.941 60.16,13.941 C61.298,13.941 62.225,13.136 62.453,12.069 C61.823,12.507 61.017,12.768 60.16,12.768 C59.005,12.768 57.937,12.261 57.185,11.438 C56.432,10.668 55.96,9.583 55.96,8.358 C55.96,7.151 56.432,6.065 57.185,5.243 C57.938,4.456 59.005,3.948 60.16,3.948 C61.07,3.948 61.875,4.228 62.505,4.683 C62.592,4.262 62.978,3.948 63.433,3.948 C63.958,3.948 64.361,4.368 64.361,4.876 L64.361,8.358 L64.361,8.376 L64.361,8.376 Z M62.488,8.358 C62.488,7.658 62.208,6.993 61.823,6.573 C61.368,6.083 60.826,5.82 60.16,5.82 C59.548,5.82 58.97,6.083 58.55,6.573 C58.13,6.993 57.85,7.658 57.85,8.358 C57.85,9.093 58.13,9.758 58.55,10.161 C58.97,10.634 59.547,10.879 60.16,10.879 C60.825,10.879 61.368,10.634 61.823,10.161 C62.208,9.759 62.488,9.094 62.488,8.358 L62.488,8.358 Z"></path>
                    <path d="M81.853,7.571 L81.853,7.623 L81.853,11.772 C81.853,12.28 81.433,12.7 80.925,12.7 C80.435,12.7 79.98,12.28 79.98,11.772 L79.98,7.623 L79.98,7.571 C79.962,6.608 79.157,5.82 78.177,5.82 C77.215,5.82 76.409,6.626 76.409,7.623 L76.409,11.772 C76.409,11.807 76.391,11.86 76.391,11.894 L76.391,11.947 C76.373,11.982 76.373,12.017 76.338,12.052 L76.338,12.139 C76.181,12.454 75.831,12.7 75.463,12.7 C75.393,12.7 75.341,12.682 75.288,12.682 C74.868,12.577 74.535,12.227 74.535,11.772 L74.535,7.623 L74.535,7.606 L74.535,4.894 C74.535,4.351 74.955,3.949 75.463,3.949 C75.831,3.949 76.163,4.141 76.303,4.474 C76.863,4.142 77.511,3.949 78.175,3.949 C79.278,3.949 80.258,4.404 80.923,5.156 C81.571,4.404 82.569,3.949 83.671,3.949 C85.684,3.949 87.311,5.594 87.311,7.624 L87.311,11.773 C87.311,12.281 86.891,12.701 86.384,12.701 C85.876,12.701 85.439,12.281 85.439,11.773 L85.439,7.624 C85.439,6.627 84.634,5.821 83.671,5.821 C82.676,5.82 81.888,6.608 81.853,7.571 L81.853,7.571 Z"></path>
                    <path d="M92.589,11.421 C91.836,10.651 91.381,9.567 91.381,8.341 C91.381,7.152 91.836,6.118 92.589,5.279 C93.377,4.457 94.392,3.949 95.599,3.949 C96.754,3.949 97.805,4.457 98.522,5.279 C99.31,6.119 99.747,7.152 99.747,8.341 C99.747,9.567 99.309,10.652 98.522,11.421 C97.805,12.244 96.754,12.752 95.599,12.752 C94.392,12.752 93.376,12.244 92.589,11.421 L92.589,11.421 Z M93.289,8.341 C93.289,9.094 93.516,9.706 93.919,10.196 C94.357,10.616 94.934,10.843 95.599,10.843 C96.212,10.843 96.772,10.615 97.209,10.196 C97.647,9.706 97.892,9.093 97.892,8.341 C97.892,7.623 97.647,6.993 97.209,6.521 C96.772,6.136 96.211,5.856 95.599,5.856 C94.934,5.856 94.356,6.136 93.919,6.521 C93.517,6.993 93.289,7.623 93.289,8.341 L93.289,8.341 Z"></path>
                    <path d="M108.363,4.876 C108.363,5.365 107.961,5.804 107.436,5.804 C107.033,5.804 106.683,5.909 106.386,6.136 C106.053,6.346 105.791,6.644 105.581,6.976 C105.161,7.537 104.951,8.202 104.864,8.447 L104.864,11.772 C104.864,12.28 104.426,12.7 103.901,12.7 C103.394,12.7 102.973,12.28 102.973,11.772 L102.973,4.876 C102.973,4.368 103.393,3.966 103.901,3.966 C104.426,3.966 104.864,4.368 104.864,4.876 L104.864,4.998 C104.969,4.876 105.109,4.735 105.231,4.648 C105.809,4.262 106.561,3.948 107.436,3.965 C107.96,3.966 108.363,4.368 108.363,4.876 L108.363,4.876 Z"></path>
                    <path d="M109.767,8.323 C109.785,5.943 111.64,3.948 114.037,3.948 C116.312,3.948 118.115,5.645 118.255,8.009 L118.255,8.096 C118.255,8.131 118.255,8.219 118.237,8.254 C118.185,8.674 117.817,8.953 117.327,8.953 L111.762,8.953 C111.849,9.356 112.042,9.811 112.357,10.108 C112.725,10.528 113.424,10.843 114.037,10.896 C114.667,10.949 115.419,10.79 115.857,10.458 C116.224,10.072 116.942,10.125 117.169,10.405 C117.397,10.65 117.571,11.176 117.169,11.543 C116.312,12.33 115.279,12.698 114.036,12.698 C111.639,12.682 109.784,10.704 109.767,8.323 L109.767,8.323 Z M111.674,7.466 L116.627,7.466 C116.452,6.766 115.559,5.734 114.037,5.611 C112.549,5.681 111.814,6.748 111.674,7.466 L111.674,7.466 Z"></path>
                    <path d="M130.356,3.37 L130.356,3.615 L130.881,3.615 C131.406,3.615 131.844,4.035 131.844,4.578 C131.844,5.103 131.406,5.541 130.881,5.541 L130.356,5.541 L130.356,11.719 C130.356,12.244 129.936,12.682 129.393,12.682 C128.85,12.682 128.431,12.244 128.431,11.719 L128.431,5.541 L127.976,5.541 C127.434,5.541 126.996,5.104 126.996,4.578 C126.996,4.035 127.434,3.615 127.976,3.615 L128.431,3.615 L128.431,3.37 C128.431,2.723 128.501,2.163 128.763,1.655 C129.008,1.13 129.498,0.727 130.023,0.57 C130.373,0.465 130.706,0.43 131.073,0.43 C131.598,0.43 132.036,0.868 132.036,1.392 C132.036,1.935 131.598,2.372 131.073,2.372 C130.846,2.372 130.688,2.39 130.618,2.425 C130.548,2.443 130.531,2.459 130.513,2.477 C130.496,2.478 130.356,2.723 130.356,3.37 L130.356,3.37 Z"></path>
                    <path d="M139.81,4.876 C139.81,5.365 139.408,5.804 138.883,5.804 C138.48,5.804 138.13,5.909 137.833,6.136 C137.5,6.346 137.238,6.644 137.028,6.976 C136.608,7.537 136.398,8.202 136.311,8.447 L136.311,11.772 C136.311,12.28 135.873,12.7 135.348,12.7 C134.841,12.7 134.42,12.28 134.42,11.772 L134.42,4.876 C134.42,4.368 134.841,3.966 135.348,3.966 C135.873,3.966 136.311,4.368 136.311,4.876 L136.311,4.998 C136.416,4.876 136.556,4.735 136.678,4.648 C137.256,4.262 138.008,3.948 138.884,3.965 C139.407,3.966 139.81,4.368 139.81,4.876 L139.81,4.876 Z"></path>
                    <path d="M143.068,11.421 C142.316,10.651 141.861,9.567 141.861,8.341 C141.861,7.152 142.316,6.118 143.068,5.279 C143.855,4.457 144.871,3.949 146.078,3.949 C147.234,3.949 148.284,4.457 149.002,5.279 C149.789,6.119 150.227,7.152 150.227,8.341 C150.227,9.567 149.789,10.652 149.002,11.421 C148.284,12.244 147.234,12.752 146.078,12.752 C144.871,12.752 143.855,12.244 143.068,11.421 L143.068,11.421 Z M143.769,8.341 C143.769,9.094 143.997,9.706 144.399,10.196 C144.837,10.616 145.415,10.843 146.079,10.843 C146.692,10.843 147.253,10.615 147.69,10.196 C148.128,9.706 148.372,9.093 148.372,8.341 C148.372,7.623 148.128,6.993 147.69,6.521 C147.253,6.136 146.692,5.856 146.079,5.856 C145.415,5.856 144.837,6.136 144.399,6.521 C143.996,6.993 143.769,7.623 143.769,8.341 L143.769,8.341 Z"></path>
                    <path d="M161.118,7.571 L161.118,7.623 L161.118,11.772 C161.118,12.28 160.698,12.7 160.19,12.7 C159.701,12.7 159.246,12.28 159.246,11.772 L159.246,7.623 L159.246,7.571 C159.228,6.608 158.423,5.82 157.443,5.82 C156.48,5.82 155.675,6.626 155.675,7.623 L155.675,11.772 C155.675,11.807 155.657,11.86 155.657,11.894 L155.657,11.947 C155.639,11.982 155.639,12.017 155.604,12.052 L155.604,12.139 C155.446,12.454 155.096,12.7 154.729,12.7 C154.659,12.7 154.606,12.682 154.553,12.682 C154.133,12.577 153.801,12.227 153.801,11.772 L153.801,7.623 L153.801,7.606 L153.801,4.894 C153.801,4.351 154.221,3.949 154.729,3.949 C155.096,3.949 155.428,4.141 155.569,4.474 C156.13,4.142 156.776,3.949 157.442,3.949 C158.544,3.949 159.524,4.404 160.189,5.156 C160.836,4.404 161.835,3.949 162.937,3.949 C164.95,3.949 166.577,5.594 166.577,7.624 L166.577,11.773 C166.577,12.281 166.157,12.701 165.65,12.701 C165.142,12.701 164.705,12.281 164.705,11.773 L164.705,7.624 C164.705,6.627 163.899,5.821 162.937,5.821 C161.941,5.82 161.153,6.608 161.118,7.571 L161.118,7.571 Z"></path>
                    <path d="M184.213,7.571 L184.213,7.623 L184.213,11.772 C184.213,12.28 183.793,12.7 183.285,12.7 C182.795,12.7 182.34,12.28 182.34,11.772 L182.34,7.623 L182.34,7.571 C182.323,6.608 181.518,5.82 180.537,5.82 C179.574,5.82 178.769,6.626 178.769,7.623 L178.769,11.772 C178.769,11.807 178.752,11.86 178.752,11.894 L178.752,11.947 C178.734,11.982 178.734,12.017 178.699,12.052 L178.699,12.139 C178.542,12.454 178.191,12.7 177.824,12.7 C177.754,12.7 177.701,12.682 177.649,12.682 C177.229,12.577 176.896,12.227 176.896,11.772 L176.896,7.623 L176.896,7.606 L176.896,4.894 C176.896,4.351 177.316,3.949 177.824,3.949 C178.191,3.949 178.524,4.141 178.664,4.474 C179.224,4.142 179.872,3.949 180.537,3.949 C181.64,3.949 182.619,4.404 183.285,5.156 C183.932,4.404 184.93,3.949 186.033,3.949 C188.045,3.949 189.673,5.594 189.673,7.624 L189.673,11.773 C189.673,12.281 189.253,12.701 188.746,12.701 C188.238,12.701 187.801,12.281 187.801,11.773 L187.801,7.624 C187.801,6.627 186.995,5.821 186.033,5.821 C185.035,5.82 184.248,6.608 184.213,7.571 L184.213,7.571 Z"></path>
                    <path d="M201.547,8.341 L201.547,11.772 C201.547,12.28 201.127,12.7 200.619,12.7 C200.164,12.7 199.814,12.367 199.709,11.947 C199.044,12.42 198.256,12.7 197.381,12.7 C196.192,12.7 195.158,12.21 194.406,11.422 C193.653,10.617 193.216,9.532 193.216,8.342 C193.216,7.135 193.654,6.049 194.406,5.262 C195.158,4.457 196.191,3.95 197.381,3.95 C198.256,3.95 199.044,4.247 199.709,4.72 C199.814,4.282 200.164,3.95 200.619,3.95 C201.127,3.95 201.547,4.37 201.547,4.895 L201.547,8.341 L201.547,8.341 Z M199.691,8.341 C199.691,7.606 199.428,6.976 199.008,6.538 C198.588,6.065 197.993,5.82 197.38,5.82 C196.75,5.82 196.155,6.065 195.753,6.538 C195.333,6.976 195.087,7.605 195.087,8.341 C195.087,9.059 195.333,9.689 195.753,10.144 C196.155,10.582 196.75,10.827 197.38,10.827 C197.993,10.827 198.588,10.582 199.008,10.144 C199.429,9.689 199.691,9.059 199.691,8.341 L199.691,8.341 Z"></path>
                    <path d="M205.576,15.044 L205.576,8.358 C205.576,8.358 205.576,8.358 205.576,8.34 L205.576,4.875 C205.576,4.367 205.997,3.947 206.504,3.947 C206.994,3.947 207.397,4.279 207.467,4.665 C208.115,4.244 208.955,3.947 209.848,3.947 C212.176,3.947 214.083,5.942 214.083,8.34 C214.083,10.738 212.176,12.681 209.848,12.681 C208.973,12.681 208.133,12.418 207.502,11.963 L207.502,15.043 C207.502,15.533 207.064,15.988 206.504,15.988 C205.997,15.989 205.576,15.534 205.576,15.044 L205.576,15.044 Z M207.502,8.341 C207.502,9.024 207.729,9.689 208.185,10.091 C208.623,10.581 209.2,10.826 209.848,10.826 C210.443,10.826 211.037,10.581 211.493,10.091 C211.895,9.689 212.177,9.024 212.177,8.341 C212.177,7.658 211.896,7.029 211.493,6.573 C211.038,6.1 210.443,5.855 209.848,5.855 C209.2,5.855 208.622,6.1 208.185,6.573 C207.729,7.028 207.502,7.658 207.502,8.341 L207.502,8.341 Z"></path>
                    <path d="M217.309,10.196 C217.623,9.776 218.237,9.723 218.621,10.056 C219.076,10.441 219.863,10.843 220.546,10.826 C221.019,10.826 221.456,10.669 221.736,10.494 C221.981,10.284 222.05,10.108 222.05,9.969 C222.05,9.881 222.032,9.846 221.997,9.794 C221.98,9.741 221.91,9.671 221.77,9.584 C221.525,9.408 221,9.216 220.37,9.094 L220.352,9.094 C219.809,8.989 219.285,8.849 218.83,8.639 C218.357,8.411 217.937,8.096 217.622,7.623 C217.43,7.309 217.325,6.924 217.325,6.521 C217.325,5.716 217.78,5.034 218.357,4.596 C218.969,4.176 219.705,3.948 220.51,3.948 C221.717,3.948 222.575,4.525 223.135,4.911 C223.555,5.19 223.677,5.768 223.414,6.206 C223.135,6.626 222.557,6.748 222.119,6.451 C221.558,6.083 221.069,5.803 220.51,5.803 C220.072,5.803 219.687,5.943 219.459,6.117 C219.232,6.274 219.179,6.432 219.179,6.519 C219.179,6.589 219.179,6.607 219.214,6.66 C219.232,6.695 219.284,6.764 219.406,6.835 C219.633,6.992 220.089,7.151 220.683,7.255 L220.701,7.272 L220.719,7.272 C221.297,7.378 221.84,7.535 222.347,7.78 C222.82,7.99 223.292,8.322 223.59,8.812 C223.799,9.163 223.922,9.565 223.922,9.967 C223.922,10.824 223.449,11.542 222.819,11.997 C222.189,12.435 221.402,12.697 220.544,12.697 C219.179,12.679 218.129,12.05 217.429,11.489 C217.046,11.177 216.993,10.581 217.309,10.196 L217.309,10.196 Z"></path>
                </g>
                <g transform="translate(317.000000, 191.000000)" id="Shape">
                    <path d="M11.789,0.058 C12.051,0.058 12.264,0.272 12.264,0.533 L12.264,3.566 C12.264,3.827 12.05,4.041 11.789,4.041 L0.685,4.041 C0.423,4.041 0.21,3.827 0.21,3.566 L0.21,0.533 C0.21,0.272 0.424,0.058 0.685,0.058 L11.789,0.058 L11.789,0.058 Z" fill="#A0904E"></path>
                    <path d="M11.789,0.058 C12.051,0.058 12.264,0.272 12.264,0.533 L12.264,3.566 C12.264,3.827 12.05,4.041 11.789,4.041 L0.685,4.041 C0.423,4.041 0.21,3.827 0.21,3.566 L0.21,0.533 C0.21,0.272 0.424,0.058 0.685,0.058 L11.789,0.058 L11.789,0.058 Z" stroke="#A0904E" stroke-width="0.1"></path>
                </g>
                <path d="M348.877,165.361 C348.877,167.208 347.362,168.752 345.493,168.752 C343.625,168.752 342.111,167.226 342.111,165.361 C342.111,163.496 343.625,162.01 345.493,162.01 C347.362,162.011 348.877,163.496 348.877,165.361 L348.877,165.361 Z" id="Shape" fill="url(#radialGradient-1)"></path>
                <path d="M345.493,168.078 C343.739,168.078 342.297,166.733 342.128,165.025 C342.116,165.135 342.111,165.247 342.111,165.361 C342.111,167.225 343.625,168.752 345.493,168.752 C347.362,168.752 348.877,167.208 348.877,165.361 C348.877,165.247 348.87,165.134 348.859,165.023 C348.689,166.718 347.248,168.078 345.493,168.078 L345.493,168.078 Z" id="Shape" fill="#ABABAB"></path>
                <path d="M345.493,162.458 C344.234,162.458 343.136,162.957 342.651,163.673 C343.098,162.819 344.166,162.011 345.5,162.011 C346.836,162.011 347.875,162.829 348.336,163.666 C347.852,162.951 346.752,162.458 345.493,162.458 L345.493,162.458 Z" id="Shape" fill="#E2E9A4"></path>
            </g>
        </g>
    </g>
</svg>